<?xml version="1.0" standalone="no"?>
<!DOCTYPE svg PUBLIC "-//W3C//DTD SVG 20010904//EN"
 "http://www.w3.org/TR/2001/REC-SVG-20010904/DTD/svg10.dtd">
<svg version="1.0" xmlns="http://www.w3.org/2000/svg"
 width="700.000000pt" height="700.000000pt" viewBox="0 0 700.000000 700.000000"
 preserveAspectRatio="xMidYMid meet">
<metadata>
Created by potrace 1.14, written by Peter Selinger 2001-2017
</metadata>
<g transform="translate(0.000000,700.000000) scale(0.100000,-0.100000)"
fill="#000000" stroke="none">
<path d="M4243 6562 c-12 -15 -34 -41 -50 -58 -15 -16 -64 -70 -108 -119 -44
-48 -85 -93 -90 -99 -11 -11 -99 -107 -189 -207 -28 -30 -67 -73 -86 -95 -64
-72 -243 -269 -259 -285 -14 -14 -125 -137 -171 -189 -15 -18 -140 -155 -181
-201 -13 -14 -58 -63 -100 -110 -42 -46 -89 -97 -104 -114 -36 -40 -82 -90
-190 -210 -105 -117 -88 -98 -195 -215 -47 -52 -108 -119 -137 -149 -28 -31
-48 -60 -44 -66 4 -5 66 -91 138 -190 350 -485 428 -593 452 -625 14 -19 124
-170 243 -335 120 -165 226 -311 237 -324 l19 -25 49 78 c26 42 62 98 78 124
45 70 258 408 276 440 9 15 121 194 249 397 128 204 310 493 404 643 94 150
213 339 264 420 110 175 116 186 105 180 -45 -26 -540 -314 -613 -358 -52 -31
-141 -83 -198 -116 -139 -80 -158 -91 -189 -111 l-26 -17 6 34 c10 56 152 674
288 1250 22 96 43 185 45 197 2 12 16 71 30 130 14 60 28 117 30 128 2 11 14
64 28 118 13 53 20 99 17 101 -4 3 -16 -8 -28 -22z"/>
<path d="M2448 2765 c-3 -3 -4 -31 -2 -63 6 -106 14 -217 18 -237 3 -20 -4
-20 -348 -25 l-351 -5 0 -40 0 -40 358 0 358 0 5 -25 c5 -22 58 -212 70 -250
5 -14 -21 -16 -213 -15 -120 1 -224 -1 -230 -3 -8 -2 -13 -21 -13 -43 l0 -39
48 -1 c26 0 137 0 248 0 l201 1 60 -97 c92 -148 179 -243 298 -328 167 -118
269 -150 467 -147 112 2 203 23 292 69 63 33 85 47 161 103 56 41 177 175 228
251 134 201 204 426 233 744 3 33 7 62 10 64 3 3 258 5 321 2 20 -1 22 -5 18
-43 -2 -24 -7 -74 -10 -113 -3 -38 -8 -77 -10 -85 -2 -8 -6 -31 -9 -50 -13
-83 -50 -201 -90 -283 l-42 -89 30 -23 c64 -47 72 -48 95 -11 39 63 102 224
115 296 2 14 9 48 15 75 6 28 13 64 16 80 8 46 19 201 19 290 l1 80 -1181 3
c-649 1 -1183 0 -1186 -3z"/>
<path d="M2025 1041 c-3 -2 -5 -32 -5 -65 l0 -61 1365 0 c1358 0 1365 0 1366
20 1 11 1 40 2 65 l0 45 -1362 0 c-749 1 -1364 -1 -1366 -4z"/>
<path d="M3819 632 c0 -10 -2 -29 -3 -43 l-2 -27 711 2 710 1 1 41 0 42 -708
0 c-653 0 -708 -1 -709 -16z"/>
</g>
</svg>
