<?xml version="1.0" encoding="utf-8"?>
<!-- Generator: Adobe Illustrator 19.2.0, SVG Export Plug-In . SVG Version: 6.00 Build 0)  -->
<svg version="1.1" xmlns="http://www.w3.org/2000/svg" xmlns:xlink="http://www.w3.org/1999/xlink" x="0px" y="0px"
	 viewBox="0 0 171.9 47.3" style="enable-background:new 0 0 171.9 47.3;" xml:space="preserve">
<style type="text/css">
	.st0{display:none;}
	.st1{fill:#72BE44;}
	.st2{fill:none;stroke:#000000;stroke-width:0.5;stroke-miterlimit:10;}
	.st3{fill:#964A9C;}
</style>
<g id="pdf_x27_s_x5F_graphics_xA0_Image_1_" class="st0">
</g>
<g id="Layer_2">
	<g>
		<path class="st3" d="M22.8,31.2c-0.2,3.4-1.1,6-2.9,7.8c-1.8,1.8-4.3,2.6-7.5,2.6c-3.4,0-6-1.1-7.8-3.3s-2.7-5.4-2.7-9.5v-5
			c0-4.1,0.9-7.3,2.8-9.5s4.5-3.3,7.8-3.3c3.3,0,5.7,0.9,7.4,2.7c1.7,1.8,2.7,4.4,2.9,7.9h-6.1c-0.1-2.1-0.4-3.6-1-4.4
			c-0.6-0.8-1.7-1.2-3.3-1.2c-1.6,0-2.8,0.6-3.4,1.7c-0.7,1.1-1,3-1.1,5.6v5.7c0,3,0.3,5,1,6.1c0.7,1.1,1.8,1.7,3.4,1.7
			c1.6,0,2.7-0.4,3.3-1.2c0.6-0.8,0.9-2.2,1-4.2H22.8z"/>
		<path class="st3" d="M33.7,32.9l5-21.7h6.7l-8.6,30h-6.3l-8.6-30h6.7L33.7,32.9z"/>
		<path class="st3" d="M46.3,37.1c0-0.1,0-0.2,0-0.3c0-0.1,0-0.3,0-0.6c0-0.3,0.1-0.6,0.1-1c0-0.4,0.1-0.9,0.2-1.6L48,22.9h-2.4
			c-0.2,0-0.4-0.1-0.5-0.2C45,22.6,45,22.4,45,22.1l0.2-1.5l3.3-0.4l1.6-6.6c0.1-0.2,0.2-0.4,0.3-0.5c0.1-0.1,0.3-0.2,0.6-0.2h2
			L52,20.2h5.6l-0.3,2.7h-5.6l-1.3,10.5c-0.1,0.6-0.1,1-0.2,1.4c0,0.4-0.1,0.6-0.1,0.8c0,0.2,0,0.4,0,0.4c0,0.1,0,0.1,0,0.2
			c0,0.7,0.2,1.2,0.5,1.6c0.3,0.3,0.8,0.5,1.3,0.5c0.4,0,0.7-0.1,1-0.2c0.3-0.1,0.5-0.2,0.7-0.3c0.2-0.1,0.4-0.2,0.5-0.3
			c0.1-0.1,0.3-0.2,0.4-0.2c0.1,0,0.2,0,0.3,0.1c0.1,0.1,0.1,0.1,0.2,0.3l0.8,1.8c-0.7,0.6-1.5,1.1-2.3,1.4
			c-0.9,0.3-1.8,0.5-2.6,0.5c-1.4,0-2.4-0.4-3.2-1.1S46.4,38.5,46.3,37.1z"/>
		<path class="st3" d="M72.8,37.2c-0.7,0.7-1.4,1.4-2.1,1.9c-0.7,0.5-1.4,1-2.1,1.3c-0.7,0.4-1.5,0.6-2.2,0.8s-1.6,0.2-2.5,0.2
			c-1.2,0-2.3-0.2-3.3-0.6s-1.8-1-2.5-1.7c-0.7-0.8-1.2-1.7-1.6-2.7c-0.4-1.1-0.5-2.3-0.5-3.6c0-1.1,0.1-2.2,0.3-3.3s0.6-2.1,1-3.1
			c0.4-1,1-1.9,1.6-2.7c0.6-0.8,1.4-1.6,2.2-2.2c0.8-0.6,1.7-1.1,2.7-1.4c1-0.4,2.1-0.5,3.2-0.5c1.1,0,2,0.2,2.8,0.5
			c0.8,0.3,1.4,0.7,1.9,1.2c0.5,0.5,0.9,1,1.1,1.6c0.2,0.6,0.4,1.1,0.4,1.6c0,0.9-0.2,1.8-0.6,2.6c-0.4,0.8-1.1,1.5-2.1,2.1
			c-1,0.6-2.4,1.2-4.2,1.6s-4,0.8-6.8,1.1c0,0.2,0,0.3,0,0.5c0,0.1,0,0.3,0,0.5c0,1.9,0.4,3.3,1.2,4.3s2.1,1.5,3.7,1.5
			c0.7,0,1.3-0.1,1.8-0.2c0.5-0.1,1-0.3,1.4-0.5c0.4-0.2,0.8-0.4,1.1-0.7c0.3-0.2,0.6-0.5,0.9-0.7c0.3-0.2,0.5-0.4,0.7-0.5
			c0.2-0.1,0.4-0.2,0.7-0.2c0.3,0,0.5,0.1,0.7,0.4L72.8,37.2z M66.8,22.2c-0.9,0-1.7,0.2-2.4,0.5c-0.7,0.4-1.4,0.9-2,1.5
			c-0.6,0.6-1.1,1.4-1.5,2.3c-0.4,0.9-0.7,1.8-0.9,2.8c2.2-0.3,3.9-0.6,5.2-0.9c1.3-0.3,2.3-0.7,3-1.1s1.2-0.8,1.4-1.3
			c0.2-0.5,0.3-0.9,0.3-1.5c0-0.3-0.1-0.5-0.2-0.8c-0.1-0.3-0.3-0.5-0.5-0.7c-0.2-0.2-0.6-0.4-1-0.6C67.9,22.3,67.4,22.2,66.8,22.2z
			"/>
		<path class="st3" d="M86.8,39.3c-0.7,0.5-1.3,1-2,1.3c-0.7,0.3-1.3,0.5-2.1,0.7c-0.7,0.1-1.5,0.2-2.3,0.2c-1.2,0-2.3-0.2-3.3-0.6
			c-0.9-0.4-1.7-1-2.4-1.8c-0.6-0.8-1.1-1.7-1.5-2.8s-0.5-2.3-0.5-3.5c0-1.7,0.3-3.4,0.8-5c0.5-1.6,1.3-3,2.3-4.2
			c1-1.2,2.1-2.2,3.5-2.9s2.8-1.1,4.4-1.1c1.4,0,2.6,0.3,3.6,0.7c1,0.5,1.8,1.2,2.5,2.2l-1.2,1.4c-0.1,0.1-0.2,0.2-0.3,0.3
			c-0.1,0.1-0.3,0.1-0.4,0.1c-0.2,0-0.4-0.1-0.6-0.3c-0.2-0.2-0.4-0.4-0.7-0.6s-0.7-0.4-1.1-0.6c-0.5-0.2-1-0.3-1.8-0.3
			c-1,0-1.9,0.3-2.7,0.8s-1.6,1.2-2.3,2.2c-0.6,0.9-1.2,2-1.5,3.2s-0.6,2.6-0.6,4c0,0.9,0.1,1.7,0.3,2.4c0.2,0.7,0.5,1.3,0.9,1.8
			c0.4,0.5,0.9,0.9,1.4,1.2c0.6,0.3,1.2,0.4,2,0.4c0.9,0,1.7-0.1,2.4-0.4c0.6-0.3,1.2-0.6,1.6-0.9c0.4-0.3,0.8-0.6,1.1-0.9
			s0.6-0.4,0.9-0.4c0.3,0,0.5,0.1,0.7,0.4l0.9,1.1C88.1,38.1,87.4,38.8,86.8,39.3z"/>
		<path class="st3" d="M94.6,24.5c1.1-1.7,2.3-2.9,3.7-3.8s2.7-1.3,4.1-1.3c0.9,0,1.7,0.2,2.4,0.5c0.7,0.4,1.2,0.9,1.7,1.6
			s0.7,1.5,0.9,2.5c0.2,1,0.2,2.1,0,3.4l-1.6,13.6h-3.8l1.6-13.6c0.2-1.7,0.1-2.9-0.3-3.7s-1.2-1.2-2.3-1.2c-0.6,0-1.3,0.2-2,0.5
			c-0.7,0.3-1.3,0.8-1.9,1.5c-0.6,0.6-1.2,1.4-1.8,2.3c-0.6,0.9-1,1.9-1.4,3l-1.4,11.3h-3.7l3.7-31h3.8L94.6,24.5z"/>
		<path class="st3" d="M116.1,30.6v10.5h-6v-30h10.2c3,0,5.3,0.9,7.1,2.8c1.8,1.8,2.6,4.2,2.6,7.2s-0.9,5.3-2.6,7
			c-1.7,1.7-4.2,2.6-7.2,2.6H116.1z M116.1,25.6h4.2c1.2,0,2-0.4,2.7-1.1c0.6-0.8,0.9-1.9,0.9-3.3c0-1.5-0.3-2.7-1-3.6
			s-1.5-1.3-2.6-1.3h-4.2V25.6z"/>
		<path class="st3" d="M132.3,41.2v-30h7.9c3.5,0,6.3,1.1,8.4,3.3c2.1,2.2,3.1,5.3,3.2,9.1v4.9c0,3.9-1,7-3.1,9.3
			c-2.1,2.2-4.9,3.4-8.6,3.4H132.3z M138.4,16.2v19.9h1.8c2,0,3.4-0.5,4.3-1.6c0.8-1.1,1.3-2.9,1.3-5.5v-5.2c0-2.8-0.4-4.7-1.2-5.9
			c-0.8-1.1-2.1-1.7-4-1.7H138.4z"/>
		<path class="st3" d="M169.9,28.9h-9.4v12.2h-6v-30H171v5h-10.5v7.7h9.4V28.9z"/>
	</g>
</g>
</svg>
